<svg xmlns="http://www.w3.org/2000/svg" viewBox="0 0 400 400">
  <defs>
    <linearGradient id="gbody" x1="0" y1="0" x2="1" y2="1"><stop offset="0" stop-color="#e6c887"/><stop offset="1" stop-color="#c39d54"/></linearGradient>
    <linearGradient id="rcap" x1="0" y1="0" x2="0" y2="1"><stop offset="0" stop-color="#a3475a"/><stop offset="1" stop-color="#7a3140"/></linearGradient>
  </defs>
  <rect width="400" height="400" fill="#1a0a0d"/>
  <circle cx="120" cy="110" r="80" fill="#8b3a4a" opacity="0.35"/>
  <ellipse cx="200" cy="338" rx="92" ry="16" fill="#000" opacity="0.35"/>
  <!-- champagne polish bottle -->
  <rect x="150" y="172" width="100" height="158" rx="22" fill="url(#gbody)"/>
  <ellipse cx="172" cy="205" rx="9" ry="26" fill="#fff8e9" opacity="0.4"/>
  <line x1="166" y1="262" x2="234" y2="262" stroke="#7a3140" stroke-width="2" opacity="0.6"/>
  <rect x="183" y="150" width="34" height="26" fill="#d4af6a"/>
  <rect x="166" y="68" width="68" height="88" rx="12" fill="url(#rcap)"/>
  <ellipse cx="184" cy="92" rx="7" ry="20" fill="#fdf8f5" opacity="0.3"/>
  <!-- sparkles -->
  <g fill="#d4af6a">
    <path d="M312,150 l4,12 12,4 -12,4 -4,12 -4,-12 -12,-4 12,-4 z"/>
    <path d="M96,250 l3,9 9,3 -9,3 -3,9 -3,-9 -9,-3 9,-3 z"/>
    <path d="M300,300 l2.5,7 7,2.5 -7,2.5 -2.5,7 -2.5,-7 -7,-2.5 7,-2.5 z"/>
  </g>
</svg>
